<svg width="17" height="16" viewBox="0 0 17 16" fill="none" xmlns="http://www.w3.org/2000/svg">
<circle cx="8.6935" cy="7.90323" r="5.26882" fill="#00C41D" fill-opacity="0.2"/>
<path d="M7.04704 7.90323L8.25818 9.11436C8.31676 9.17294 8.41174 9.17294 8.47031 9.11436L10.9987 6.58602" stroke="#3B828F" stroke-width="1.2"/>
<path d="M13.4623 7.90323C13.4623 8.84641 13.1826 9.76841 12.6586 10.5526C12.1346 11.3369 11.3898 11.9481 10.5184 12.309C9.64706 12.67 8.68821 12.7644 7.76315 12.5804C6.83809 12.3964 5.98837 11.9422 5.32144 11.2753C4.65451 10.6084 4.20032 9.75864 4.01631 8.83358C3.83231 7.90852 3.92675 6.94967 4.28769 6.07828C4.64863 5.20689 5.25986 4.4621 6.04409 3.9381C6.82831 3.4141 7.75032 3.13441 8.6935 3.13441" stroke="#3B828F" stroke-linecap="round"/>
</svg>
