<svg width="29" height="29" viewBox="0 0 29 29" fill="none" xmlns="http://www.w3.org/2000/svg">
<path d="M26.3483 12.1335H25.375V12.0833H14.5V16.9167H21.3289C20.3326 19.7303 17.6556 21.75 14.5 21.75C10.4962 21.75 7.24999 18.5038 7.24999 14.5C7.24999 10.4962 10.4962 7.25 14.5 7.25C16.3481 7.25 18.0295 7.94721 19.3098 9.08607L22.7275 5.6683C20.5694 3.65703 17.6827 2.41667 14.5 2.41667C7.82697 2.41667 2.41666 7.82698 2.41666 14.5C2.41666 21.173 7.82697 26.5833 14.5 26.5833C21.173 26.5833 26.5833 21.173 26.5833 14.5C26.5833 13.6898 26.4999 12.899 26.3483 12.1335Z" fill="#FFC107"/>
<path d="M3.80988 8.87582L7.77985 11.7873C8.85406 9.12776 11.4556 7.25001 14.5 7.25001C16.3481 7.25001 18.0295 7.94721 19.3098 9.08607L22.7275 5.6683C20.5695 3.65703 17.6827 2.41667 14.5 2.41667C9.85879 2.41667 5.83383 5.03694 3.80988 8.87582Z" fill="#FF3D00"/>
<path d="M14.5 26.5833C17.6211 26.5833 20.4571 25.3889 22.6013 23.4465L18.8615 20.2819C17.6483 21.2008 16.1403 21.75 14.5 21.75C11.3571 21.75 8.68851 19.746 7.68317 16.9493L3.7428 19.9852C5.74259 23.8984 9.8038 26.5833 14.5 26.5833Z" fill="#4CAF50"/>
<path d="M26.3483 12.1335H25.375V12.0833H14.5V16.9167H21.3289C20.8504 18.2682 19.981 19.4336 18.8597 20.2825L18.8615 20.2813L22.6013 23.4459C22.3366 23.6863 26.5833 20.5417 26.5833 14.5C26.5833 13.6898 26.5 12.899 26.3483 12.1335Z" fill="#1976D2"/>
</svg>
