<svg width="23" height="23" viewBox="0 0 23 23" fill="none" xmlns="http://www.w3.org/2000/svg">
<path d="M23 19.8056C23 21.5702 21.5702 23 19.8056 23H3.19444C1.43047 23 0 21.5702 0 19.8056V3.19444C0 1.42983 1.43047 0 3.19444 0H19.8056C21.5702 0 23 1.42983 23 3.19444V19.8056Z" fill="#0288D1"/>
<path d="M3.83337 8.30555H7.02782V19.1667H3.83337V8.30555ZM5.42101 7.02777H5.40312C4.4499 7.02777 3.83337 6.31733 3.83337 5.42991C3.83337 4.52333 4.46907 3.83333 5.43954 3.83333C6.41129 3.83333 7.00993 4.52333 7.02782 5.42991C7.02782 6.31669 6.41129 7.02777 5.42101 7.02777ZM19.1667 19.1667H15.9723V13.3534C15.9723 11.9491 15.1896 10.9908 13.9329 10.9908C12.974 10.9908 12.4552 11.6374 12.2035 12.2622C12.1115 12.4858 12.1389 13.1042 12.1389 13.4167V19.1667H8.94449V8.30555H12.1389V9.97688C12.5996 9.26388 13.3209 8.30555 15.166 8.30555C17.4519 8.30555 19.1661 9.74305 19.1661 12.9528L19.1667 19.1667Z" fill="white"/>
</svg>
